<?xml version="1.0" encoding="utf-8"?>
<!-- Generator: Adobe Illustrator 19.2.1, SVG Export Plug-In . SVG Version: 6.00 Build 0)  -->
<!DOCTYPE svg PUBLIC "-//W3C//DTD SVG 1.1//EN" "http://www.w3.org/Graphics/SVG/1.1/DTD/svg11.dtd">
<svg version="1.1" id="Layer_1" xmlns="http://www.w3.org/2000/svg" xmlns:xlink="http://www.w3.org/1999/xlink" x="0px" y="0px"
	 viewBox="0 0 440 100" enable-background="new 0 0 440 100" xml:space="preserve">
<symbol id="youtube">
	<path d="M291.1,80.5h-8.8v-5.1c-3.4,3.8-6.2,5.8-9.3,5.8c-2.7,0-4.6-1.3-5.5-3.6c-0.6-1.4-1-3.6-1-6.8V33.5h8.8v34.9v3.3
		c0.2,1.3,0.8,1.8,1.9,1.8c1.7,0,3.2-1.5,5.1-4.1V33.5h8.8C291.1,33.5,291.1,80.5,291.1,80.5z"/>
	<path d="M251.1,66.5c0.5,4.7-1,7-3.7,7c-2.7,0-4.2-2.3-3.7-7V47.9c-0.5-4.7,1-6.8,3.7-6.8c2.7,0,4.2,2.2,3.7,6.8
		C251.1,47.9,251.1,66.5,251.1,66.5z M259.9,48.8c0-5-1-8.8-2.8-11.2c-2.4-3.2-6-4.5-9.8-4.5c-4.2,0-7.4,1.3-9.8,4.5
		c-1.8,2.4-2.8,6.2-2.8,11.2l0,16.7c0,5,0.9,8.4,2.7,10.8c2.4,3.2,6.2,4.9,9.9,4.9c3.7,0,7.6-1.7,10-4.9c1.8-2.4,2.6-5.8,2.6-10.8
		C259.9,65.6,259.9,48.8,259.9,48.8z"/>
	<path d="M225,54.9v25.6h-9.3V54.9c0,0-9.6-31.4-11.6-37.2h9.8l6.5,24.5l6.5-24.5h9.8C236.7,17.7,225,54.9,225,54.9z"/>
	<g>
		<path d="M416.6,46.5c0-4.3-1.1-5.6-3.9-5.6c-2.8,0-4,1.2-4,5.5v5.1l7.9,0V46.5z"/>
		<path d="M382,41c-1.4,0-3,0.7-4.4,2.1l0,28.2c1.4,1.4,3,2.1,4.4,2.1c2.4,0,3.5-1.8,3.5-6.4V47C385.5,42.3,384.4,41,382,41z"/>
		<path d="M435.7,22.7L435.7,22.7c0,0-1.4-9.5-5.5-13.7c-5.3-5.5-11.2-5.5-13.9-5.9c-19.4-1.4-48.6-1.4-48.6-1.4h-0.1
			c0,0-29.2,0-48.6,1.4c-2.7,0.3-8.6,0.4-13.9,5.9c-4.2,4.2-5.5,13.7-5.5,13.7s-1.4,11.2-1.4,22.4v10.5c0,11.2,1.4,22.4,1.4,22.4
			s1.4,9.5,5.5,13.7c5.3,5.5,12.2,5.3,15.3,5.9c11.1,1.1,47.2,1.4,47.2,1.4s29.2,0,48.6-1.4c2.7-0.3,8.6-0.3,13.9-5.9
			c4.2-4.2,5.5-13.7,5.5-13.7s1.4-11.2,1.4-22.4V45.1C437.1,33.9,435.7,22.7,435.7,22.7z M328.7,80.5h-9.3V27h-9.8v-8.8l29.3,0V27
			h-10.2V80.5z M362.2,80.5h-8.8v-5.1c-3.4,3.8-6.2,5.8-9.3,5.8c-2.7,0-4.6-1.3-5.5-3.6c-0.6-1.4-1-3.6-1-6.8V33.9h8.8v34.4v3.3
			c0.2,1.3,0.8,1.8,1.9,1.8c1.7,0,3.2-1.5,5.1-4.1V33.9h8.8V80.5z M394.3,66.5c0,4.3-0.4,7.3-0.9,9.3c-1.1,3.5-3.6,5.3-6.9,5.3
			c-3,0-6.1-1.8-8.9-5.3l0,4.7h-8.4V18.1h8.4l0,20.3c2.7-3.3,5.8-5.3,8.9-5.3c3.4,0,5.6,1.9,6.7,5.4c0.6,1.9,1.1,4.9,1.1,9.3V66.5z
			 M412.8,73.4c2.1,0,3.3-1.1,3.8-3.4c0.1-0.5,0.1-2.5,0.1-5.8h8.8v1.3c0,2.7-0.2,4.6-0.3,5.5c-0.3,1.9-0.9,3.6-2,5
			c-2.3,3.4-5.8,5-10.2,5c-4.4,0-7.8-1.6-10.2-4.8c-1.8-2.3-2.9-5.8-2.9-10.7V49.3c0-5,1-8.8,2.8-11.2c2.4-3.2,5.8-4.9,10.1-4.9
			c4.2,0,7.6,1.7,9.9,4.9c1.8,2.4,2.7,6,2.7,11l0,9.5h-16.8v8.4C408.7,71.2,409.9,73.4,412.8,73.4z"/>
	</g>
</symbol>
<symbol id="netflix">
	<path d="M127.5,92.1c-5.3,0.9-10.8,1.2-16.4,2L93.9,43.9v52.4c-5.3,0.6-10.2,1.3-15.3,2.1v-96h14.3l19.5,54.5V2.3h15.1L127.5,92.1
		L127.5,92.1z M157,37.5c5.8,0,14.7-0.3,20.1-0.3v15c-6.7,0-14.4,0-20.1,0.3v22.3c8.8-0.6,17.6-1.3,26.5-1.6v14.4L142,90.9V2.3h41.5
		v15H157C157,17.3,157,37.5,157,37.5z M239.3,17.3h-15.6v69c-5.1,0-10.1,0-15,0.2V17.3h-15.6v-15h46.1
		C239.3,2.3,239.3,17.3,239.3,17.3z M263.7,36.5h20.5v15h-20.5v34H249V2.3h41.9v15h-27.2C263.7,17.3,263.7,36.5,263.7,36.5z
		 M315.3,72.4c8.5,0.2,17.2,0.8,25.5,1.3v14.8c-13.4-0.8-26.8-1.7-40.5-2V2.3h15V72.4L315.3,72.4z M353.4,89.5
		c4.8,0.3,9.8,0.6,14.7,1.1V2.3h-14.7V89.5z M433.9,2.3l-19,45.7l19,50.3c-5.6-0.7-11.3-1.8-16.9-2.7l-10.8-27.7l-11,25.5
		c-5.4-0.9-10.7-1.2-16.1-2l19.3-44L381,2.3h16.1l9.8,25.2l10.5-25.2L433.9,2.3L433.9,2.3z"/>
</symbol>
<symbol id="appletv">
	<path d="M432.5,26.7c-3.4,8.7-6.9,17.3-10.3,26.1c-5.2,13.5-10.3,26.9-15.3,40.5c-0.9,2.4-2.1,3.4-4.7,3.2
		c-3.2-0.3-6.4,0.1-9.6-0.1c-1-0.1-2.5-0.9-2.8-1.7c-8.4-22.5-16.7-45.1-24.9-67.6c-0.1-0.3-0.1-0.6-0.1-1.4
		c5.2,0,10.2-0.1,15.2,0.1c0.8,0,1.9,1.5,2.2,2.5c5.4,17,10.7,34,16,51.1c0.1,0.3,0.3,0.5,0.6,1c2.6-8.3,5.1-16.3,7.6-24.3
		c2.9-9.3,6-18.5,8.8-27.8c0.6-2.1,1.6-2.7,3.6-2.6c4.6,0.1,9.2-0.1,13.7-0.2C432.5,25.7,432.5,26.2,432.5,26.7z"/>
	<path d="M299.4,34.8C284,46.3,287,65.1,302,72.6c-2.9,8.5-7.4,16.2-14.2,22.2c-3.6,3.3-8.2,3.7-12.6,1.6c-7-3.3-13.9-3.2-20.9,0
		c-4.5,2.1-8.8,1.6-12.5-1.7c-12.8-11.5-21.1-34.4-16.4-50.7c3.3-11.4,12.7-18.7,23.7-18.1c2,0.1,4.2,0.5,6,1.4
		c5.8,3,11.1,2.5,17.1,0.1c3.7-1.5,8.3-1.7,12.4-1.4C291,26.5,295.2,29.4,299.4,34.8z"/>
	<path d="M341.5,8c0,5.9,0,11.5,0,17.5c5.6,0,10.9,0,16.4,0c0,4,0,7.5,0,11.4c-5.3,0-10.7,0-16.2,0c-0.1,1.5-0.2,2.6-0.2,3.7
		c0,10.1,0,20.2,0,30.3c0,2,0.2,4.1,0.6,6.1c1.1,5.5,3.9,7.6,9.3,7.5c2,0,4.1-0.2,6.4-0.3c0,3.8,0,7.6,0,11.8
		c-7.9,1.9-16,3.2-23.5-1.7c-6.8-4.4-7.7-11.7-7.9-18.8c-0.3-11.5-0.1-23-0.1-34.5c0-1.2,0-2.5,0-4c-3.8,0-7.2,0-10.8,0
		c0-3.9,0-7.5,0-11.6c3.5,0,7,0,10.8,0c0-3.9-0.1-7.3,0.1-10.7c0.1-0.9,0.9-2.4,1.7-2.7C332.4,10.7,336.8,9.5,341.5,8z"/>
	<path d="M281.8,2.7c2,10.6-7.7,22.1-18.4,21.7C260.9,15.1,270.6,3.6,281.8,2.7z"/>
</symbol>
<symbol id="amazon">
	<path d="M233.2,97.4c-21.6-2-41.2-9.4-57.9-21.9c-4.7-3.5-9.2-7.4-9.5-8.1
		c-0.3-0.8,0.4-1.8,1.2-1.8c0.4,0,2.6,1,4.9,2.3C186.6,76,204.5,82,222,84.6c14.1,2.1,29.9,2.2,43.6,0.2c11.5-1.7,24.1-5.1,34.3-9.2
		c2-0.8,4.1-1.5,4.7-1.5c1.8,0,2.8,2.1,1.8,3.5c-0.2,0.4-1.8,1.6-3.6,2.7c-12.6,8.5-28.1,14.1-46.6,16.6
		C252.2,97.5,237.6,97.8,233.2,97.4z"/>
	<path d="M308.1,90.8c-0.1-0.3,0.1-1.1,0.4-1.9c1.8-4.5,4.1-12,4.4-14.1
		c0.6-4.3-0.1-5.3-4-5.9c-2.4-0.4-6.8-0.3-13.1,0.4c-2.9,0.3-3.9,0.3-4.2,0c-1-1,1.8-3.2,6-4.8c4.9-1.9,13.1-2.5,18.2-1.5
		c4.1,0.9,4.6,1.4,4.6,5c0,5.3-2.3,12.4-5.6,17.4C312,89.8,308.8,92.4,308.1,90.8L308.1,90.8z"/>
	<path d="M390.4,28.6c-1.4-6.8-4.2-12.1-8.8-16.7c-7.7-7.7-18.8-10.8-29.4-8.1c-10.9,2.8-19.3,11.4-22.3,22.6
		c-0.7,2.6-0.8,3.5-0.8,7.6c0,4.1,0.1,5.1,0.8,7.7c3.2,11.9,12.5,20.8,24.3,23c1.4,0.3,3.6,0.4,6.7,0.3c3.8-0.1,5-0.2,7.3-0.9
		c11.4-3.4,19.7-12.3,22.1-23.9C390.9,37.5,390.9,31.1,390.4,28.6z M376.1,34.3c-0.1,0.7-1.5,1.4-12.4,6.8c-6.7,3.3-12.4,6-12.5,6
		c-0.1,0-0.4-0.2-0.7-0.5c-0.4-0.4-0.5-2-0.5-12.4V22.3l0.7-0.3c0.6-0.3,2.4,0.5,12.6,5.3c6.6,3.1,12.1,5.8,12.4,6
		C376,33.4,376.2,33.9,376.1,34.3z"/>
	<path d="M146.3,9c-6.8-0.1-12.5,2-16.1,6c-1.7,1.9-3.5,5.4-3.7,7.5
		c-0.2,1.4-0.1,1.6,0.5,2c0.4,0.3,2.6,0.7,5.2,0.9c5.1,0.6,5.4,0.5,5.9-1.6c1-3.6,4.8-5.8,8.5-4.9c3.2,0.7,4.3,2.4,4.7,6.9
		c0.2,3.2,0.5,3-3.4,3.3c-3.5,0.3-9.1,1.3-11.4,2c-7.6,2.5-11.8,8.1-11.8,15.8c0,7,3.1,11.7,9,13.6c2.2,0.7,7,0.8,9.7,0.1
		c2.4-0.6,5.1-2,7.1-3.7c0.9-0.7,1.8-1.5,2-1.8c0.4-0.3,0.7-0.1,2,1.7c1.8,2.4,3.6,4,4.6,4c0.7,0,6.8-5,8.2-6.7
		c0.7-0.8,0.5-1.4-0.8-3.3c-0.5-0.8-1.3-2-1.7-2.8c-0.7-1.4-0.7-1.5-0.9-14.2c-0.1-8.3-0.3-13.4-0.5-14.2c-0.6-2.2-2.1-4.8-3.8-6.3
		c-2.9-2.6-6.8-4-12.1-4.2C147.2,9,146.8,9,146.3,9z M151.5,36.1l0,0.9c0,3.8-0.6,8.1-1.3,9.6c-0.9,2-2.4,3.7-3.9,4.5
		c-1.7,0.8-4.4,0.8-5.7-0.1c-1.4-1-2.2-2.7-2.4-5.2c-0.2-3,0.4-4.6,2.2-6.5c1.9-1.9,4.2-2.7,8.4-3C148.8,36.3,151.5,36.1,151.5,36.1z
		"/>
	<path d="M265.3,9.1c-2.7,0-5.7,0.2-7.3,0.6c-2.9,0.7-6.6,2.5-8.5,4.1
		c-2.4,2.1-4.3,5.6-4.9,8.8c-0.4,1.9,0.1,2.2,5.4,2.8c3.1,0.4,5,0.4,5.3,0.3c0.3-0.2,0.7-0.8,0.9-1.4c1.2-3.6,3.4-5.4,7.1-5.4
		c2.2,0,3.1,0.3,4.3,1.4c1.3,1.1,1.7,2.3,1.8,5.4c0.2,3.5,0.9,3-5.7,3.7c-8.1,0.9-12.4,2.4-15.9,5.7c-7.1,6.5-6.5,19.5,1.1,24.1
		c0.9,0.5,2.4,1.2,3.3,1.4c2.5,0.7,8.6,0.5,11.1-0.4c2.1-0.8,4.2-2.1,6.4-4.1c0.9-0.8,1.6-1.4,1.7-1.3c0,0.1,0.4,0.6,0.8,1.2
		c0.4,0.6,1.5,1.9,2.5,3c2.6,2.7,2.6,2.7,7.4-1.5c2.1-1.9,3.9-3.7,4-4s-0.4-1.3-1-2.2c-0.6-0.9-1.5-2.4-1.9-3.3l-0.8-1.7l-0.2-12.9
		c-0.2-13.5-0.2-13.9-1.7-16.7c-1.5-3-5.7-5.9-10.1-7C269.4,9.2,267.4,9.1,265.3,9.1z M268.1,36.2h1.5l0,3c0,5.5-1.4,9.4-4.2,11.4
		c-1.1,0.8-1.6,0.9-3.3,1c-2.9,0.1-4.6-1-5.4-3.7c-1.2-4.2,0.2-8.1,3.7-10C262.1,37,265.7,36.2,268.1,36.2z"/>
	<path d="M175,59.9c-0.5-0.5-0.5-2.6-0.5-24.5c0-21.4,0.1-24,0.5-24.4
		c0.7-0.7,10.2-0.7,10.9,0c0.4,0.4,0.5,1.2,0.5,3.9l0,3.4l0.9-1.8c2.4-5.1,7.5-7.7,13.1-6.8c3.8,0.6,6.8,2.8,8.7,6.4l1,1.8l0.9-1.6
		c2-3.6,5.4-6,9.5-6.6c5.8-0.9,12,2.3,13.8,7.2c1.1,2.9,1.2,5.6,1.1,24.5c-0.1,17.7-0.1,18.3-0.7,18.7c-0.8,0.6-10.4,0.6-11.2,0
		c-0.6-0.4-0.6-1-0.7-17.9c-0.1-16.9-0.2-17.5-0.8-18.6c-0.9-1.5-2.1-2.1-4.3-2.2c-2.1,0-3.2,0.5-4.6,2c-1.7,1.9-1.7,2-1.9,19.8
		C211,59,211,59.6,210.4,60c-0.5,0.3-1.7,0.4-5.6,0.4c-2.8,0-5.2-0.1-5.5-0.3c-0.4-0.2-0.5-2.6-0.6-17c-0.2-18.7-0.2-19-2.2-20.8
		c-2-1.7-5.4-1.6-7.3,0.4c-2,2-2,2.4-2.2,20.5c-0.1,14.3-0.2,16.3-0.6,16.7c-0.4,0.5-1.1,0.5-5.7,0.5C176,60.4,175.4,60.4,175,59.9
		L175,59.9z"/>
	<path d="M396.3,60.2c-1-0.6-1-2-1-25c0-17.6,0.1-23.2,0.4-23.8
		c0.4-0.7,0.4-0.7,5.5-0.8c4.5-0.1,5.2,0,5.6,0.4c0.3,0.4,0.4,1.5,0.4,4.1c0,2,0,3.6,0,3.6c0,0,0.5-0.9,1.1-2
		c2.1-4.2,5.1-6.4,9.2-7.1c5.5-0.8,10.7,1.6,13,6c1.8,3.6,1.8,3.3,1.9,24.4c0.1,17.9,0.1,19.4-0.4,19.9c-0.5,0.5-1,0.6-5.7,0.6
		c-4.7,0-5.3-0.1-5.7-0.6c-0.5-0.5-0.5-2.1-0.5-16.1c0-9.8-0.1-16.3-0.3-17.4c-0.7-3.8-2.6-5.5-5.7-5.2c-2.8,0.3-4.8,2.6-5.6,6.5
		c-0.3,1.6-0.4,5.1-0.4,16.8c0,14.4,0,14.8-0.6,15.4c-0.6,0.6-1,0.6-5.7,0.6C398.9,60.4,396.5,60.3,396.3,60.2L396.3,60.2z"/>
	<path d="M292.1,58.8c-0.5-0.4-0.6-0.8-0.6-5.4c0-3.5,0.1-5.2,0.4-5.9
		c0.2-0.5,4.4-6.8,9.3-13.9l8.9-12.9l-8.1-0.2c-7.5-0.1-8.1-0.2-8.5-0.7c-0.3-0.4-0.4-1.6-0.4-4.5c0-3.5,0.1-3.9,0.6-4.5
		c0.6-0.6,1-0.6,15.9-0.6c14.6,0,15.3,0,16,0.6c0.7,0.6,0.7,0.8,0.7,4.2v3.6l-1.2,1.8c-0.7,1-4.6,6.7-8.7,12.6
		c-4.1,6-7.5,10.9-7.5,10.9s1.6,0.2,3.6,0.3c4.1,0.2,8.3,1.2,11.3,2.6c3.2,1.5,3.3,1.7,3.3,7c0,3.9-0.1,4.5-0.6,5
		c-0.7,0.7-1,0.6-2.7-0.2c-8.1-4.1-19.7-4.2-28.1-0.4C293.1,59.4,293,59.4,292.1,58.8L292.1,58.8z"/>
</symbol>
<symbol id="spotify">
	<path d="M177.2,2.6c26.5,0,47.8,21.4,47.7,47.9c-0.1,26.9-22.3,47.9-48.5,47.4c-25.5-0.4-46.8-21.1-46.9-47.7
		C129.5,24,150.9,2.6,177.2,2.6z M168.4,27.8c-2,0.1-5.9,0.4-9.8,0.8c-3.8,0.4-7.5,1.2-11.1,2.3c-1.8,0.6-3.1,2.1-3.2,3.9
		c-0.2,3.2,2.6,5.4,5.8,4.6c3-0.7,6.1-1.5,9.1-1.9c6.9-1,13.8-1,20.7-0.2c9.1,1,17.8,3.1,25.7,7.7c1.5,0.9,3.1,0.7,4.6-0.3
		c2.6-1.8,2.5-5.7-0.2-7.4c-2.9-1.8-6-3.2-9.2-4.4C190.9,29.3,180.7,28,168.4,27.8z M167.6,44.2c-1.7,0.1-5,0.3-8.3,0.8
		c-3.1,0.5-6.1,1.2-9.1,2c-2.4,0.6-3.4,3.2-2.2,5.3c0.9,1.6,2.6,2.3,4.4,1.7c3.3-1,6.6-1.6,10-2c5.2-0.5,10.4-0.5,15.7,0.2
		c7.7,1,15,3.2,21.8,7.3c1.9,1.1,4.1,0.6,5.2-1.2c1.1-1.8,0.5-4-1.4-5.1c-1.6-1-3.3-1.9-5-2.7C189.2,46.2,179.4,44.4,167.6,44.2z
		 M169.8,60c-1.3,0-2.6-0.1-3.9,0c-4.8,0.2-9.5,1-14.1,2.1c-1.1,0.2-1.8,0.9-2.2,1.9c-0.4,1.1-0.2,2.1,0.6,3
		c0.9,0.9,1.9,1.1,3.1,0.8c6.3-1.4,12.7-2.2,19.2-1.9c8,0.4,15.5,2.3,22.4,6.5c1.5,0.9,3.3,0.5,4.2-1c0.9-1.5,0.4-3.2-1.1-4.1
		c-1.5-0.8-2.9-1.7-4.4-2.4C186,61.3,178.1,59.8,169.8,60z"/>
	<path d="M397.8,46.6c0,0.4,0,0.6,0,0.9c0,7.9,0,15.9,0,23.8c0,1.1,0,1.1-1.1,1.1c-2.1,0-4.2,0-6.4,0c-0.9,0-1-0.1-1-1
		c0-7.9,0-15.9,0-23.8c0-0.3,0-0.6,0-1c-1.1,0-2.1,0-3.2,0c-0.7,0-0.9-0.2-0.9-0.9c0-1.9,0-3.8,0-5.7c0-0.8,0.1-0.9,1-0.9
		c1,0,1.9,0,2.9,0c0,0,0.1,0,0.2-0.1c0.1-1.1,0-2.2,0.2-3.3c0.2-1.4,0.5-2.8,1-4.1c1.3-3.1,3.9-4.6,7.1-5c2.7-0.4,5.4-0.1,8,0.6
		c0.5,0.1,0.7,0.4,0.7,1c0,1.8,0,3.6,0,5.4c0,1.1-0.1,1.1-1.2,0.9c-1.3-0.3-2.6-0.6-4-0.6c-1.8-0.1-3,0.9-3.3,2.7
		c-0.2,0.8-0.1,1.7-0.2,2.6c0.3,0,0.6,0,0.8,0c3.7,0,7.4,0,11.1,0c0.8,0,1.2,0.2,1.4,1c2.7,7,5.3,14,8,21c0.1,0.2,0.2,0.4,0.3,0.8
		c0.6-1.7,1.2-3.3,1.7-4.9c2-5.7,4-11.4,6-17.1c0.2-0.6,0.5-0.7,1.1-0.7c2.3,0,4.6,0,6.8,0c1,0,1.1,0.2,0.8,1.1
		c-3.4,8.8-6.8,17.6-10.2,26.4c-1.2,3.2-2.5,6.3-3.9,9.5c-0.8,1.8-2,3.4-3.6,4.5c-2.2,1.6-4.8,1.8-7.4,1.6c-2.2-0.1-4.2-0.8-6.1-1.8
		c-0.7-0.4-0.8-0.5-0.5-1.3c0.7-1.6,1.5-3.2,2.2-4.8c0.3-0.7,0.5-0.7,1.2-0.4c1,0.4,2,0.8,3.1,1c2,0.4,3.4-0.6,4.3-2.3
		c0.3-0.5,0.3-1,0.1-1.6c-3.3-8-6.7-15.9-10-23.9c-0.2-0.4-0.4-0.6-0.9-0.6C402,46.6,399.9,46.6,397.8,46.6z"/>
	<path d="M284.6,43.4c0.5-0.5,0.9-0.9,1.3-1.3c4.6-4.1,9.8-4.5,15.2-2.2c3.8,1.6,6.5,4.5,7.9,8.3c2.1,5.6,2,11.2-0.6,16.6
		c-3.4,6.9-11.7,10.1-18.7,7.3c-1.6-0.6-3-1.6-4.3-2.8c-0.2-0.2-0.4-0.4-0.6-0.6c0,0-0.1,0-0.2,0c0,0.2,0,0.5,0,0.7
		c0,3.9,0,7.9,0,11.8c0,0.9-0.1,1-1,1c-2.2,0-4.4,0-6.6,0c-0.8,0-0.9-0.1-0.9-0.9c0-13.7,0-27.5,0-41.2c0-0.8,0.1-0.9,0.9-0.9
		c2.2,0,4.5,0,6.7,0c0.7,0,0.9,0.2,0.9,0.9C284.6,41.1,284.6,42.2,284.6,43.4z M284.5,55.8c0,1.8,0.4,3.6,1.3,5.2
		c1.8,3.1,4.4,4.8,8.1,4.6c3.5-0.2,5.9-2,7.3-5.2c1.1-2.7,1.2-5.4,0.4-8.1c-1.9-6.3-9.3-8.3-14-3.9C285.3,50.4,284.5,53,284.5,55.8z
		"/>
	<path d="M257.8,73.1c-7-0.1-12.9-2.3-18-6.6c-0.8-0.7-0.8-0.8-0.1-1.5c1.3-1.5,2.5-3,3.8-4.5c0.7-0.8,0.8-0.8,1.6-0.1
		c2.6,2.2,5.5,4,8.9,4.7c2.3,0.5,4.6,0.6,6.9-0.1c0.9-0.3,1.7-0.7,2.4-1.3c1.8-1.4,2.1-5.1-0.5-6.6c-1.8-1.1-3.8-1.6-5.8-2.2
		c-2.8-0.8-5.5-1.6-8.3-2.5c-1.7-0.6-3.3-1.6-4.6-2.8c-2.3-2.2-3.2-4.9-3.3-8c-0.1-6.3,3.7-11.3,10.1-12.7
		c7.6-1.7,14.5-0.1,20.6,4.7c0.5,0.4,0.5,0.7,0.1,1.2c-1.2,1.7-2.5,3.4-3.7,5.2c-0.4,0.5-0.7,0.6-1.2,0.2c-2.4-1.8-5.1-3.2-8.1-3.8
		c-2.3-0.4-4.7-0.5-6.9,0.6c-1.9,1-2.7,2.7-2.3,4.8c0.2,1.2,0.9,1.9,1.9,2.5c1.8,1.1,3.9,1.6,5.9,2.2c2.4,0.7,4.9,1.4,7.3,2.2
		c1.1,0.4,2.2,1,3.2,1.6c4,2.3,5.6,5.9,5.4,10.4c-0.3,6.4-4.5,10.7-10.8,12.1c-0.8,0.2-1.6,0.3-2.4,0.4
		C259.3,73,258.4,73,257.8,73.1z"/>
	<path d="M330.4,73.3c-8.3-0.1-15.3-5.5-17.1-13.3c-2.4-9.8,4.1-19.6,14.1-21.2c7.8-1.3,15.1,2.1,18.7,8.7
		c5.4,9.9,0.2,22.8-11.9,25.3C333,73.1,331.7,73.1,330.4,73.3z M339.7,56c0-1.6-0.3-3.1-0.9-4.4c-2.7-6.1-10.9-7.5-15.2-2.5
		c-2.3,2.6-2.8,5.7-2.2,9c1.1,5.8,7,9.1,12.4,7C337.5,63.7,339.7,60.2,339.7,56z"/>
	<path d="M361.3,39.2c2.5,0,4.8,0,7.1,0c1.5,0,1.5,0,1.5,1.5c0,1.7,0,3.4,0,5.1c0,0.6-0.2,0.8-0.8,0.8c-2.3,0-4.6,0-7,0
		c-0.2,0-0.5,0-0.8,0c0,0.3,0,0.5,0,0.8c0,4.8,0,9.6,0,14.3c0,0.5,0,0.9,0.1,1.4c0.3,1.4,1.3,2.2,2.8,2.2c1.6,0.1,3.1-0.2,4.5-0.9
		c0.8-0.4,1.1-0.2,1.1,0.7c0,1.8,0,3.6,0,5.3c0,0.3-0.2,0.8-0.5,0.9c-3.6,1.9-7.5,2.2-11.3,0.8c-2.9-1-4.4-3.3-4.9-6.3
		c-0.2-1-0.3-2-0.3-3.1c0-5.1,0-10.2,0-15.4c0-0.3,0-0.5,0-0.9c-1.1,0-2.1,0-3.2,0c-0.8,0-0.9-0.1-0.9-0.9c0-1.9,0-3.7,0-5.6
		c0-0.8,0.1-0.9,0.9-0.9c1,0,2,0,2.9,0c0,0,0.1,0,0.2-0.1c0-0.2,0-0.5,0-0.7c0-2.4,0-4.8,0-7.2c0-0.8,0.1-0.9,0.9-0.9
		c2.2,0,4.4,0,6.6,0c0.8,0,0.9,0.1,0.9,0.9c0,2.4,0,4.7,0,7.1C361.3,38.6,361.3,38.9,361.3,39.2z"/>
	<path d="M381.8,55.8c0,5.2,0,10.4,0,15.6c0,1,0,1-1,1c-2.1,0-4.2,0-6.3,0c-1.1,0-1.1,0-1.1-1.1c0-9.7,0-19.4,0-29.1
		c0-0.8,0-1.5,0-2.3c0-0.6,0.2-0.8,0.8-0.8c2.3,0,4.6,0,6.9,0c0.7,0,0.8,0.4,0.8,1C381.8,45.4,381.8,50.6,381.8,55.8z"/>
	<path d="M377.6,24.6c3,0,5.3,2.3,5.3,5.3c0,3-2.3,5.3-5.3,5.3c-3,0-5.3-2.3-5.3-5.3C372.3,26.9,374.7,24.6,377.6,24.6z"/>
</symbol>
</svg>
