<?xml version="1.0" encoding="utf-8"?>
<!--   -->
<!DOCTYPE svg PUBLIC "-//W3C//DTD SVG 1.1//EN" "http://www.w3.org/Graphics/SVG/1.1/DTD/svg11.dtd">
<svg version="1.1" xmlns="http://www.w3.org/2000/svg" xmlns:xlink="http://www.w3.org/1999/xlink" x="0px" y="0px"
	 viewBox="0 0 48 48" enable-background="new 0 0 48 48" xml:space="preserve">
<g id="none">
		<circle fill="none" stroke-linecap="round" stroke-linejoin="round" stroke-miterlimit="10" cx="24" cy="24" r="22"/>
</g>
<g id="off">
		<circle fill="none" stroke-linecap="round" stroke-linejoin="round" stroke-miterlimit="10" cx="24" cy="24" r="22"/>
	
		<circle fill="none" stroke-linecap="round" stroke-linejoin="round" stroke-miterlimit="10" cx="24" cy="24" r="11"/>
</g>
<g id="on">
	<path d="M24,2C11.8,2,2,11.8,2,24s9.8,22,22,22s22-9.8,22-22S36.2,2,24,2z M24,35c-6.1,0-11-4.9-11-11s4.9-11,11-11
		s11,4.9,11,11S30.1,35,24,35z"/>
</g>
<g id="wind">
	<polygon fill="none" stroke-linecap="round" stroke-linejoin="round" stroke-miterlimit="10" points="
	8.9,31.5 24.1,1.4 39,31.6 24,22.9 	"/>
</g>
<symbol id="bmw">
	<path fill="none" d="M44.3,28.4c0.9-0.3,1.6-0.6,2.3-0.9c0.6-0.3,0.9-0.8,0.9-1.5
		c0-0.9-0.1-1.9-0.1-2.8c0-0.1-0.2-0.4-0.3-0.4c-0.4-0.2-0.5-0.4-0.4-0.8c0.1-0.7,0.2-1.4,0.1-2.1c-0.1-1.1-0.3-2-1.3-2.7
		c-0.8-0.6-1.6-1.3-2.4-2c-0.6-0.5-0.6-0.5-0.1-1.3c-0.2-0.1-0.3-0.1-0.4-0.1c-1.3-0.2-2.7-0.4-4-0.6c-0.3,0-0.7-0.1-0.8-0.2
		c-0.3-0.5-0.6-0.3-1-0.2c-0.4,0.1-0.9,0.3-1.3,0.3c-3.4-0.1-6.7-0.2-10.1-0.3c-3.3-0.1-6.5,0.6-9.4,2.2c-1.9,1.1-3.9,2-5.9,3.1
		c-0.8,0.4-1.6,0.7-2.5,0.9c-1.8,0.4-3.5,0.9-5.1,1.9c-0.5,0.3-0.7,0.7-0.6,1.3c0.1,0.5,0,0.9-0.5,1.2c-0.7,0.5-1,1.3-0.8,2.2
		c0.2,1,0.3,1.9,0.4,3C1.6,28.4,3,28.7,3.8,29"/>
	<path fill="none" d="M11.6,28.6c8.3,0,16.5,0,24.7,0"/>
	<circle fill="none" cx="7.6" cy="27.5" r="4.1"/>
	<circle fill="none" cx="40.2" cy="27.5" r="4.1"/>
</symbol>
<symbol id="volvo">
	<path fill="none" d="M42.3,28.3c0.1,0,0.1,0.1,0.1,0c1.5-0.2,2.9-0.5,4.4-0.8
		c0.1,0,0.3-0.2,0.3-0.3c0.3-1.1,0.6-2.2-0.2-3.2c-0.1-0.1-0.1-0.3-0.1-0.5c0-1,0.1-2,0-2.9c0-0.8-0.2-1.6-0.9-2.2
		c-0.9-0.8-1.8-1.5-2.7-2.3c-0.2-0.2-0.3-0.4-0.4-0.7c0-0.1,0.1-0.2,0.1-0.3c-1.4-0.2-2.7-0.4-4.1-0.5c-5-0.4-10-0.5-15.1,0.1
		c-2,0.2-4,0.7-5.7,1.9c-1.4,0.9-2.8,1.9-4.2,2.8c-0.3,0.2-0.6,0.3-0.9,0.3c-2.9,0.1-5.7,0.3-8.5,1c-1,0.2-2,0.6-2.9,1
		c-0.6,0.3-1,0.8-1,1.5c0,0.8,0.1,1.5,0.1,2.3c0,0.3,0,0.5-0.1,0.8c0,0.2-0.2,0.5-0.2,0.7c0,0.3,0,0.6-0.1,1
		c1.1,0.2,2.3,0.3,3.5,0.5"/>
	<path fill="none" d="M11.9,28.5c7.5,0,15,0,22.5,0"/>
	<circle fill="none" cx="7.9" cy="27.5" r="4"/>
	<circle fill="none" cx="38.4" cy="27.5" r="4"/>
</symbol>
<g id="light_bulb">
	<g>
		<path fill="none" stroke-linecap="round" stroke-linejoin="round" stroke-miterlimit="10" d="
			M37.3,16.9c0-8-6.6-14.4-14.7-14C15.7,3.2,10,8.8,9.4,15.6c-0.4,4.6,1.4,8.7,4.4,11.5c2.4,2.2,4.1,5,4.9,8.1l0.6,2.6h8l0.6-2.6
			c0.8-3.2,2.6-6,4.9-8.2C35.6,24.6,37.3,20.9,37.3,16.9z"/>
		<path fill="none" stroke-linecap="round" stroke-linejoin="round" stroke-miterlimit="10" d="
			M20.3,7.9c0,0-6.1,1.7-7,10"/>
		<path fill="none" stroke-linecap="round" stroke-linejoin="round" stroke-miterlimit="10" d="
			M25.4,45.8h-4.3c-1.6,0-2.9-1.3-2.9-2.9v-5h10v5C28.3,44.5,27,45.8,25.4,45.8z"/>
	</g>
</g>

<symbol id="logoApple">
	<path stroke="none" d="M26.3,5.3c1.6-1.9,4.3-3.2,6.5-3.3C33,4.6,32,7.2,30.4,9c-1.5,1.9-4,3.3-6.5,3.1C23.6,9.6,24.8,7,26.3,5.3z"/>
	<path stroke="none" d="M38.8,40.5c-1.8,2.7-3.7,5.3-6.7,5.4c-2.9,0.1-3.9-1.7-7.2-1.7c-3.4,0-4.4,1.7-7.2,1.8c-2.9,0.1-5.1-2.9-6.9-5.6
		C7,35,4.1,25,8,18.3c1.9-3.3,5.3-5.5,9.1-5.5c2.8-0.1,5.5,1.9,7.2,1.9c1.7,0,5-2.4,8.4-2c1.4,0.1,5.4,0.6,8,4.4
		c-0.2,0.1-4.8,2.8-4.7,8.4c0.1,6.7,5.8,8.9,5.9,8.9C41.8,34.4,40.9,37.4,38.8,40.5z"/>
</symbol>
<symbol id="logoAmazon">
	<g>
		<path stroke="none"  fill-rule="evenodd" clip-rule="evenodd" d="M38.2,37.5c-0.2,0-0.4,0-0.6,0.1c-0.2,0.1-0.4,0.2-0.6,0.3L36.6,38l-0.4,0.2v0
			c-4.3,1.8-8.9,2.8-13.1,2.9c-0.2,0-0.3,0-0.5,0c-6.6,0-12-3.1-17.5-6.1c-0.2-0.1-0.4-0.2-0.6-0.2c-0.2,0-0.5,0.1-0.7,0.3
			c-0.2,0.2-0.3,0.4-0.3,0.7c0,0.3,0.2,0.6,0.4,0.8c5.1,4.4,10.7,8.6,18.3,8.6c0.1,0,0.3,0,0.4,0c4.8-0.1,10.2-1.7,14.4-4.4l0,0
			c0.6-0.3,1.1-0.7,1.6-1.1c0.3-0.2,0.5-0.6,0.5-1C39.4,37.9,38.8,37.5,38.2,37.5z"/>
		<path stroke="none" fill-rule="evenodd" clip-rule="evenodd" d="M45.5,34.7L45.5,34.7c0-0.5-0.1-0.8-0.3-1.1l0,0l0,0c-0.2-0.2-0.4-0.3-0.6-0.4
			c-0.6-0.2-1.4-0.3-2.5-0.4c-0.7,0-1.6,0.1-2.4,0.2l-0.8,0.2l0,0l-0.5,0.2c-0.5,0.2-1,0.5-1.5,0.8c-0.3,0.2-0.5,0.5-0.5,0.9
			c0,0.2,0.1,0.5,0.3,0.7c0.2,0.2,0.4,0.2,0.6,0.2c0,0,0.1,0,0.1,0l0,0l0,0c0.4-0.1,1-0.1,1.7-0.2c0.6-0.1,1.2-0.1,1.8-0.1
			c0.4,0,0.7,0,1,0.1c0.1,0,0.2,0.1,0.3,0.1c0,0,0,0,0,0c0,0,0,0.1,0,0.2c0,0.5-0.2,1.3-0.5,2.1c-0.3,0.8-0.6,1.7-0.8,2.2
			c0,0.1-0.1,0.3-0.1,0.4c0,0.2,0.1,0.5,0.3,0.7c0.2,0.2,0.4,0.2,0.6,0.2h0c0.3,0,0.6-0.1,0.8-0.3c2.1-1.9,2.8-4.9,2.9-6.6
			L45.5,34.7z"/>
		<path stroke="none" fill-rule="evenodd" clip-rule="evenodd" d="M26.3,14.5c-1.2,0.1-2.7,0.2-4.1,0.4c-2.2,0.3-4.4,0.7-6.2,1.5
			c-3.5,1.4-5.9,4.5-5.9,8.9c0,5.6,3.6,8.4,8.2,8.4c1.5,0,2.8-0.2,3.9-0.5c1.8-0.6,3.3-1.6,5.1-3.5c1,1.4,1.3,2.1,3.1,3.6
			c0.5,0.2,0.9,0.2,1.3-0.1c1.1-1,3.1-2.7,4.2-3.6c0.5-0.4,0.4-1,0.1-1.4c-1-1.3-2.1-2.5-2.1-5v-8.5c0-3.6,0.3-6.9-2.4-9.4
			c-2.2-2-5.6-2.8-8.3-2.8h-1.1c-4.8,0.3-10,2.4-11.1,8.3c-0.2,0.8,0.4,1,0.8,1.1l5.3,0.7c0.6-0.1,0.9-0.6,0.9-1
			c0.5-2.1,2.2-3.1,4.1-3.3h0.4c1.1,0,2.4,0.5,3,1.4c0.8,1.1,0.7,2.7,0.7,4V14.5z M25.3,25.8c-0.7,1.3-1.8,2.2-3,2.5
			c-0.2,0-0.5,0.1-0.8,0.1c-2.1,0-3.3-1.6-3.3-4c0-3,1.8-4.5,4.1-5.1c1.2-0.3,2.7-0.4,4.1-0.4V20C26.3,22.1,26.4,23.9,25.3,25.8z"/>
	</g>
</symbol>
<symbol id="logoNetflix">
	<path stroke="none" d="M26.8,2.1l0,9.7l0,9.7L26,19.2c0,0,0,0,0,0l-1,21.6
		c1,2.9,1.6,4.4,1.6,4.4c0,0,0.6,0,1.3,0.1c2.1,0.1,4.7,0.3,6.7,0.6C35,46,35.4,46,35.4,46s0-9.9,0-22l0-21.9h-4.3H26.8z"/>
	<path stroke="none" d="M11.2,2v22c0,12.1,0,22,0,22c0,0,0.8-0.1,1.7-0.2
		c0.9-0.1,2.1-0.2,2.8-0.3c1-0.1,3.8-0.3,4.1-0.3c0.1,0,0.1-0.5,0.1-9.3l0-9.3l0.7,1.9c0.1,0.3,0.1,0.4,0.2,0.7l1-21.6
		c-0.2-0.6-0.1-0.3-0.4-1c-0.8-2.4-1.6-4.4-1.6-4.5L19.9,2h-4.3H11.2z"/>
	<path stroke="none" d="M11.2,2l8.7,24.7v0l0.7,1.9c3.8,10.8,5.9,16.6,5.9,16.6
		c0,0,0.6,0,1.3,0.1c2.1,0.1,4.7,0.3,6.7,0.6C35,46,35.4,46,35.4,46l-8.6-24.5v0L26,19.2c-0.8-2.2-1.3-3.7-4.4-12.5
		c-0.8-2.4-1.6-4.4-1.6-4.5L19.9,2h-4.3L11.2,2L11.2,2z"/>
</symbol>
<symbol id="logoYoutube">
	<path stroke="none" d="M44.4,17.2c0-3.4-2.8-6.2-6.2-6.2h-29C5.8,11,3,13.8,3,17.2v16.6C3,37.2,5.8,40,9.2,40h29
		c3.4,0,6.2-2.8,6.2-6.2V17.2z M19.6,33.6V18l11.8,7.8L19.6,33.6z"/>
</symbol>
<symbol id="cross-line">
		<line fill="none" stroke-linecap="round" stroke-linejoin="round" stroke-miterlimit="10" x1="42" y1="6" x2="6.5" y2="41.5"/>
</symbol>

<symbol id="shutter_0">
	<line stroke-linecap="round" stroke-linejoin="round" stroke-miterlimit="10" x1="24" y1="4" x2="24" y2="44"/>
	<path fill="none" stroke-width="2" stroke-linecap="round" stroke-miterlimit="10" d="M42.3,44H5.7
		C4.7,44,4,43.3,4,42.3V5.7C4,4.7,4.7,4,5.7,4h36.7C43.3,4,44,4.7,44,5.7v36.7C44,43.3,43.3,44,42.3,44z"/>
	<path d="M43.6,6H4.4C4.2,6,4,5.8,4,5.6V4.4C4,4.2,4.2,4,4.4,4h39.3C43.8,4,44,4.2,44,4.4v1.3C44,5.8,43.8,6,43.6,6z"
		/>
</symbol>
<symbol id="shutter_10">
	<line stroke-linecap="round" stroke-linejoin="round" stroke-miterlimit="10" x1="24" y1="4" x2="24" y2="44"/>
	<path fill="none" stroke-width="2" stroke-linecap="round" stroke-miterlimit="10" d="M42.3,44H5.7
		C4.7,44,4,43.3,4,42.3V5.7C4,4.7,4.7,4,5.7,4h36.7C43.3,4,44,4.7,44,5.7v36.7C44,43.3,43.3,44,42.3,44z"/>
	<path d="M43.5,8H4.5C4.2,8,4,7.8,4,7.5V4.5C4,4.2,4.2,4,4.5,4h38.9C43.8,4,44,4.2,44,4.5v2.9C44,7.8,43.8,8,43.5,8z"
		/>
</symbol>
<symbol id="shutter_20">
	<line stroke-linecap="round" stroke-linejoin="round" stroke-miterlimit="10" x1="24" y1="4" x2="24" y2="44"/>
	<path fill="none" stroke-width="2" stroke-linecap="round" stroke-miterlimit="10" d="M42.3,44H5.7
		C4.7,44,4,43.3,4,42.3V5.7C4,4.7,4.7,4,5.7,4h36.7C43.3,4,44,4.7,44,5.7v36.7C44,43.3,43.3,44,42.3,44z"/>
	<path d="M43.3,12H4.7C4.3,12,4,11.7,4,11.3V4.7C4,4.3,4.3,4,4.7,4h38.5C43.7,4,44,4.3,44,4.7v6.5
		C44,11.7,43.7,12,43.3,12z"/>
</symbol>
<symbol id="shutter_30">
	<line stroke-linecap="round" stroke-linejoin="round" stroke-miterlimit="10" x1="24" y1="4" x2="24" y2="44"/>
	<path fill="none" stroke-width="2" stroke-linecap="round" stroke-miterlimit="10" d="M42.3,44H5.7
		C4.7,44,4,43.3,4,42.3V5.7C4,4.7,4.7,4,5.7,4h36.7C43.3,4,44,4.7,44,5.7v36.7C44,43.3,43.3,44,42.3,44z"/>
	<path d="M43.1,16H4.9C4.4,16,4,15.6,4,15.1V4.9C4,4.4,4.4,4,4.9,4h38.2C43.6,4,44,4.4,44,4.9v10.2
		C44,15.6,43.6,16,43.1,16z"/>
</symbol>
<symbol id="shutter_40">
	<line stroke-linecap="round" stroke-linejoin="round" stroke-miterlimit="10" x1="24" y1="4" x2="24" y2="44"/>
	<path fill="none" stroke-width="2" stroke-linecap="round" stroke-miterlimit="10" d="M42.3,44H5.7
		C4.7,44,4,43.3,4,42.3V5.7C4,4.7,4.7,4,5.7,4h36.7C43.3,4,44,4.7,44,5.7v36.7C44,43.3,43.3,44,42.3,44z"/>
	<path d="M42.9,20H5.1C4.5,20,4,19.5,4,18.9V5.1C4,4.5,4.5,4,5.1,4h37.9C43.5,4,44,4.5,44,5.1v13.9
		C44,19.5,43.5,20,42.9,20z"/>
</symbol>
<symbol id="shutter_50">
	<line stroke-linecap="round" stroke-linejoin="round" stroke-miterlimit="10" x1="24" y1="4" x2="24" y2="44"/>
	<path fill="none" stroke-width="2" stroke-linecap="round" stroke-miterlimit="10" d="M42.3,44H5.7
		C4.7,44,4,43.3,4,42.3V5.7C4,4.7,4.7,4,5.7,4h36.7C43.3,4,44,4.7,44,5.7v36.7C44,43.3,43.3,44,42.3,44z"/>
	<path d="M42.8,24H5.2C4.5,24,4,23.5,4,22.8V5.2C4,4.5,4.5,4,5.2,4h37.7C43.5,4,44,4.5,44,5.2v17.7
		C44,23.5,43.5,24,42.8,24z"/>
</symbol>
<symbol id="shutter_60">
	<line stroke-linecap="round" stroke-linejoin="round" stroke-miterlimit="10" x1="24" y1="4" x2="24" y2="44"/>
	<path fill="none" stroke-width="2" stroke-linecap="round" stroke-miterlimit="10" d="M42.3,44H5.7
		C4.7,44,4,43.3,4,42.3V5.7C4,4.7,4.7,4,5.7,4h36.7C43.3,4,44,4.7,44,5.7v36.7C44,43.3,43.3,44,42.3,44z"/>
	<path d="M42.7,28H5.3C4.6,28,4,27.4,4,26.7V5.3C4,4.6,4.6,4,5.3,4h37.4C43.4,4,44,4.6,44,5.3v21.4
		C44,27.4,43.4,28,42.7,28z"/>
</symbol>
<symbol id="shutter_70">
	<line stroke-linecap="round" stroke-linejoin="round" stroke-miterlimit="10" x1="24" y1="4" x2="24" y2="44"/>
	<path fill="none" stroke-width="2" stroke-linecap="round" stroke-miterlimit="10" d="M42.3,44H5.7
		C4.7,44,4,43.3,4,42.3V5.7C4,4.7,4.7,4,5.7,4h36.7C43.3,4,44,4.7,44,5.7v36.7C44,43.3,43.3,44,42.3,44z"/>
	<path d="M42.6,32H5.4C4.6,32,4,31.4,4,30.6V5.4C4,4.6,4.6,4,5.4,4h37.2C43.4,4,44,4.6,44,5.4v25.2
		C44,31.4,43.4,32,42.6,32z"/>
</symbol>
<symbol id="shutter_80">
	<line stroke-linecap="round" stroke-linejoin="round" stroke-miterlimit="10" x1="24" y1="4" x2="24" y2="44"/>
	<path fill="none" stroke-width="2" stroke-linecap="round" stroke-miterlimit="10" d="M42.3,44H5.7
		C4.7,44,4,43.3,4,42.3V5.7C4,4.7,4.7,4,5.7,4h36.7C43.3,4,44,4.7,44,5.7v36.7C44,43.3,43.3,44,42.3,44z"/>
	<path d="M42.5,36h-37C4.7,36,4,35.3,4,34.5v-29C4,4.7,4.7,4,5.5,4h37C43.3,4,44,4.7,44,5.5v29
		C44,35.3,43.3,36,42.5,36z"/>
</symbol>
<symbol id="shutter_90">
	<line stroke-linecap="round" stroke-linejoin="round" stroke-miterlimit="10" x1="24" y1="4" x2="24" y2="44"/>
	<path fill="none" stroke-width="2" stroke-linecap="round" stroke-miterlimit="10" d="M42.3,44H5.7
		C4.7,44,4,43.3,4,42.3V5.7C4,4.7,4.7,4,5.7,4h36.7C43.3,4,44,4.7,44,5.7v36.7C44,43.3,43.3,44,42.3,44z"/>
	<path d="M42.4,40H5.6C4.7,40,4,39.3,4,38.4V5.6C4,4.7,4.7,4,5.6,4h36.8C43.3,4,44,4.7,44,5.6v32.8
		C44,39.3,43.3,40,42.4,40z"/>
</symbol>
<symbol id="shutter_100">
	<line stroke-linecap="round" stroke-linejoin="round" stroke-miterlimit="10" x1="24" y1="4" x2="24" y2="44"/>
	<path fill="none" stroke-width="2" stroke-linecap="round" stroke-miterlimit="10" d="M42.3,44H5.7
		C4.7,44,4,43.3,4,42.3V5.7C4,4.7,4.7,4,5.7,4h36.7C43.3,4,44,4.7,44,5.7v36.7C44,43.3,43.3,44,42.3,44z"/>
	<path d="M42.4,40H5.6C4.7,40,4,39.3,4,38.4V5.6C4,4.7,4.7,4,5.6,4h36.8C43.3,4,44,4.7,44,5.6v32.8
		C44,39.3,43.3,40,42.4,40z"/>
</symbol>
<symbol id="equal">
		<line stroke-linecap="round" stroke-linejoin="round" stroke-miterlimit="10" x1="6" y1="20" x2="42" y2="20"/>
		<line stroke-linecap="round" stroke-linejoin="round" stroke-miterlimit="10" x1="6" y1="28" x2="42" y2="28"/>
</symbol>
<symbol id="fuel">
	<path fill="none" stroke-miterlimit="10" d="M33.171,46.5H11.496
		c-0.365,0-0.663-0.298-0.663-0.663V5.079c0-1.969,1.611-3.579,3.579-3.579h15.841c1.969,0,3.579,1.611,3.579,3.579v40.758
		C33.833,46.202,33.535,46.5,33.171,46.5z"/>
	<path fill="none" stroke-miterlimit="10" d="M29.098,19.667H15.735
		c-0.634,0-1.152-0.518-1.152-1.152V6.402c0-0.634,0.518-1.152,1.152-1.152h13.363c0.634,0,1.152,0.518,1.152,1.152v12.113
		C30.25,19.148,29.732,19.667,29.098,19.667z"/>
	
		<line fill="none" stroke-linecap="round" stroke-miterlimit="10" x1="17.976" y1="9.335" x2="26.893" y2="9.335"/>
	
		<line fill="none" stroke-linecap="round" stroke-miterlimit="10" x1="17.976" y1="12.53" x2="26.893" y2="12.53"/>
	
		<line fill="none" stroke-linecap="round" stroke-miterlimit="10" x1="17.976" y1="15.725" x2="26.893" y2="15.725"/>
	<path fill="none" stroke-linecap="round" stroke-linejoin="round" stroke-miterlimit="10" d="
		M33.833,23.167l2.127,1.847c0.661,0.574,1.04,1.406,1.04,2.281v8.832c0,0.612,0.249,1.197,0.689,1.622l0.074,0.072
		c0.908,0.877,2.359,0.837,3.218-0.088h0c0.387-0.417,0.602-0.965,0.602-1.534V12.853c0-0.261-0.043-0.52-0.127-0.767v0
		c-0.303-0.887-0.709-1.736-1.209-2.528L38,6"/>
	
		<polyline fill="none" stroke-linecap="round" stroke-linejoin="round" stroke-miterlimit="10" points="
		41.427,12 39.667,13.255 38.083,19.083 41.583,19.083 	"/>
</symbol>
</svg>
